<svg width="20" height="20" viewBox="0 0 20 20" fill="none" xmlns="http://www.w3.org/2000/svg">
<path d="M0.625 16.4062C0.625 16.6963 0.740234 16.9745 0.945352 17.1796C1.15047 17.3848 1.42867 17.5 1.71875 17.5H18.2812C18.5713 17.5 18.8495 17.3848 19.0546 17.1796C19.2598 16.9745 19.375 16.6963 19.375 16.4062V8.125H0.625V16.4062Z" fill="white"/>
<path d="M19.375 4.84375C19.375 4.55367 19.2598 4.27547 19.0546 4.07035C18.8495 3.86523 18.5713 3.75 18.2812 3.75H8.31406L6.43906 2.5H1.71875C1.42867 2.5 1.15047 2.61523 0.945352 2.82035C0.740234 3.02547 0.625 3.30367 0.625 3.59375V6.875H19.375V4.84375Z" fill="white"/>
</svg>
